HIERARCHY
ROOT Hips
{
	OFFSET 0.00000 0.00000 0.00000
	CHANNELS 6 Xposition Yposition Zposition Zrotation Yrotation Xrotation 
	JOINT LHipJoint
	{
		OFFSET 0 0 0
		CHANNELS 3 Zrotation Yrotation Xrotation
		JOINT LeftUpLeg
		{
			OFFSET 1.84395 -1.68683 0.74144
			CHANNELS 3 Zrotation Yrotation Xrotation
			JOINT LeftLeg
			{
				OFFSET 2.27037 -6.23779 0.00000
				CHANNELS 3 Zrotation Yrotation Xrotation
				JOINT LeftFoot
				{
					OFFSET 2.56918 -7.05877 0.00000
					CHANNELS 3 Zrotation Yrotation Xrotation
					JOINT LeftToeBase
					{
						OFFSET 0.22276 -0.61202 1.71784
						CHANNELS 3 Zrotation Yrotation Xrotation
						End Site
						{
							OFFSET 0.00000 -0.00000 0.91613
						}
					}
				}
			}
		}
	}
	JOINT RHipJoint
	{
		OFFSET 0 0 0
		CHANNELS 3 Zrotation Yrotation Xrotation
		JOINT RightUpLeg
		{
			OFFSET -1.76833 -1.68684 0.74144
			CHANNELS 3 Zrotation Yrotation Xrotation
			JOINT RightLeg
			{
				OFFSET -2.49360 -6.85110 0.00000
				CHANNELS 3 Zrotation Yrotation Xrotation
				JOINT RightFoot
				{
					OFFSET -2.55538 -7.02085 0.00000
					CHANNELS 3 Zrotation Yrotation Xrotation
					JOINT RightToeBase
					{
						OFFSET -0.21516 -0.59115 1.68050
						CHANNELS 3 Zrotation Yrotation Xrotation
						End Site
						{
							OFFSET -0.00000 -0.00000 0.89604
						}
					}
				}
			}
		}
	}
	JOINT LowerBack
	{
		OFFSET 0 0 0
		CHANNELS 3 Zrotation Yrotation Xrotation
		JOINT Spine
		{
			OFFSET 0.06382 1.72312 -0.19613
			CHANNELS 3 Zrotation Yrotation Xrotation
			JOINT Spine1
			{
				OFFSET -0.00055 1.73507 0.23859
				CHANNELS 3 Zrotation Yrotation Xrotation
				JOINT Neck
				{
					OFFSET 0 0 0
					CHANNELS 3 Zrotation Yrotation Xrotation
					JOINT Neck1
					{
						OFFSET 0.03638 1.65562 0.09633
						CHANNELS 3 Zrotation Yrotation Xrotation
						JOINT Head
						{
							OFFSET 0.06388 1.62807 -0.32386
							CHANNELS 3 Zrotation Yrotation Xrotation
							End Site
							{
								OFFSET 0.00995 1.67644 -0.12021
							}
						}
					}
				}
				JOINT LeftShoulder
				{
					OFFSET 0 0 0
					CHANNELS 3 Zrotation Yrotation Xrotation
					JOINT LeftArm
					{
						OFFSET 3.09648 1.42991 0.28122
						CHANNELS 3 Zrotation Yrotation Xrotation
						JOINT LeftForeArm
						{
							OFFSET 5.11878 -0.00000 -0.00000
							CHANNELS 3 Zrotation Yrotation Xrotation
							JOINT LeftHand
							{
								OFFSET 3.59971 -0.00000 0.00000
								CHANNELS 3 Zrotation Yrotation Xrotation
								JOINT LeftFingerBase
								{
									OFFSET 0 0 0
									CHANNELS 3 Zrotation Yrotation Xrotation
									JOINT LeftHandIndex1
									{
										OFFSET 0.62877 -0.00000 0.00000
										CHANNELS 3 Zrotation Yrotation Xrotation
										End Site
										{
											OFFSET 0.50693 -0.00000 0.00000
										}
									}
								}
								JOINT LThumb
								{
									OFFSET 0 0 0
									CHANNELS 3 Zrotation Yrotation Xrotation
									End Site
									{
										OFFSET 0.51467 -0.00000 0.51467
									}
								}
							}
						}
					}
				}
				JOINT RightShoulder
				{
					OFFSET 0 0 0
					CHANNELS 3 Zrotation Yrotation Xrotation
					JOINT RightArm
					{
						OFFSET -3.33565 1.14597 0.05047
						CHANNELS 3 Zrotation Yrotation Xrotation
						JOINT RightForeArm
						{
							OFFSET -5.49020 -0.00000 0.00000
							CHANNELS 3 Zrotation Yrotation Xrotation
							JOINT RightHand
							{
								OFFSET -3.20659 -0.00000 -0.00000
								CHANNELS 3 Zrotation Yrotation Xrotation
								JOINT RightFingerBase
								{
									OFFSET 0 0 0
									CHANNELS 3 Zrotation Yrotation Xrotation
									JOINT RightHandIndex1
									{
										OFFSET -0.69188 -0.00000 0.00000
										CHANNELS 3 Zrotation Yrotation Xrotation
										End Site
										{
											OFFSET -0.55781 -0.00000 0.00000
										}
									}
								}
								JOINT RThumb
								{
									OFFSET 0 0 0
									CHANNELS 3 Zrotation Yrotation Xrotation
									End Site
									{
										OFFSET -0.56633 -0.00000 0.56633
									}
								}
							}
						}
					}
				}
			}
		}
	}
}
MOTION
Frames: 15
Frame Time: .0083333
-0.3576 17.4909 7.9697 0 0 0 0 0 0 -21 0 0 0 0 0 0 0 0 0 0 0 0 0 0 21 0 0 0 0 0 0 0 0 0 0 0 0 0 0 0 0 0 0 0 0 0 0 -16 0 0 21 0 0 11 0 0 0 -8 0 0 0 0 0 0 0 0 0 0 0 0 0 0 0 0 0 0 0 0 8 0 0 0 0 0 0 0 0 0 0 0 0 0 0 0 0 0
-0.3576 17.4909 7.9697 -8.5704 -1.6304 6.0502 0.0000 0.0000 0.0000 -21.0099 -33.8248 25.6763 0.0690 -1.6946 -4.6623 -4.9762 38.7514 -32.8867 0.0494 1.4337 3.9430 0.0000 0.0000 0.0000 29.9777 22.5011 10.6990 -0.0041 -0.4131 1.1350 0.7816 -19.1175 -19.2263 -0.0213 -0.9412 2.5871 0.0000 0.0000 0.0000 0.0000 0.0000 0.0000 0.0000 0.0000 0.0000 0.0000 0.0000 0.0000 0.0000 0.0000 0.0000 0.0000 0.0000 0.0000 0.0000 0.0000 0.0000 0.0000 0.0000 -0.0000 0.0000 0.0000 -0.0000 -0.0000 -0.0000 0.0000 -0.0000 -0.0000 0.0000 -0.0000 0.0000 0.0000 0.0000 0.0000 0.0000 0.0000 0.0000 0.0000 -0.0000 0.0000 -0.0000 -0.0000 0.0000 -0.0000 0.0000 0.0000 0.0000 0.0000 0.0000 0.0000 0.0000 0.0000 0.0000 0.0000 -0.0000 0.0000
-0.3580 17.4910 7.9695 -8.5953 -1.6446 6.0648 0.0000 0.0000 0.0000 -21.0626 -33.9443 25.7771 0.0688 -1.6928 -4.6575 -5.0081 38.8571 -33.0068 0.0477 1.4092 3.8754 0.0000 0.0000 0.0000 29.9848 22.4690 10.6378 -0.0043 -0.4236 1.1639 0.7762 -19.0730 -19.2016 -0.0162 -0.8211 2.2566 0.0000 0.0000 0.0000 0.0000 0.0000 0.0000 0.0000 0.0000 0.0000 0.0000 0.0000 0.0000 0.0000 0.0000 0.0000 0.0000 0.0000 0.0000 0.0000 0.0000 0.0000 0.0000 0.0000 -0.0000 0.0000 0.0000 -0.0000 -0.0000 -0.0000 0.0000 -0.0000 -0.0000 0.0000 -0.0000 0.0000 0.0000 0.0000 0.0000 0.0000 0.0000 0.0000 0.0000 -0.0000 0.0000 -0.0000 -0.0000 0.0000 -0.0000 0.0000 0.0000 0.0000 0.0000 0.0000 0.0000 0.0000 0.0000 0.0000 0.0000 -0.0000 0.0000
-0.3575 17.4915 7.9690 -8.5949 -1.6448 6.0600 0.0000 0.0000 0.0000 -21.1014 -33.9890 25.8300 0.0690 -1.6946 -4.6624 -5.0042 38.8764 -33.0991 0.0497 1.4383 3.9557 0.0000 0.0000 0.0000 30.0060 22.5180 10.6787 -0.0042 -0.4193 1.1522 0.7784 -19.1096 -19.2515 -0.0162 -0.8217 2.2582 0.0000 0.0000 0.0000 0.0000 0.0000 0.0000 0.0000 0.0000 0.0000 0.0000 0.0000 0.0000 0.0000 0.0000 0.0000 0.0000 0.0000 0.0000 0.0000 0.0000 0.0000 0.0000 0.0000 -0.0000 0.0000 0.0000 -0.0000 -0.0000 -0.0000 0.0000 -0.0000 -0.0000 0.0000 -0.0000 0.0000 0.0000 0.0000 0.0000 0.0000 0.0000 0.0000 0.0000 -0.0000 0.0000 -0.0000 -0.0000 0.0000 -0.0000 0.0000 0.0000 0.0000 0.0000 0.0000 0.0000 0.0000 0.0000 0.0000 0.0000 -0.0000 0.0000
-0.3567 17.4919 7.9686 -8.5887 -1.6440 6.0781 0.0000 0.0000 0.0000 -21.0651 -33.9576 25.7659 0.0692 -1.6969 -4.6688 -5.0386 38.9044 -32.9411 0.0434 1.3441 3.6962 0.0000 0.0000 0.0000 29.9845 22.5154 10.6453 -0.0043 -0.4239 1.1648 0.7759 -19.1007 -19.2663 -0.0176 -0.8566 2.3542 0.0000 0.0000 0.0000 0.0000 0.0000 0.0000 0.0000 0.0000 0.0000 0.0000 0.0000 0.0000 0.0000 0.0000 0.0000 0.0000 0.0000 0.0000 0.0000 0.0000 0.0000 0.0000 0.0000 -0.0000 0.0000 0.0000 -0.0000 -0.0000 -0.0000 0.0000 -0.0000 -0.0000 0.0000 -0.0000 0.0000 0.0000 0.0000 0.0000 0.0000 0.0000 0.0000 0.0000 -0.0000 0.0000 -0.0000 -0.0000 0.0000 -0.0000 0.0000 0.0000 0.0000 0.0000 0.0000 0.0000 0.0000 0.0000 0.0000 0.0000 -0.0000 0.0000
-0.3588 17.4952 7.9745 -8.4240 -1.6306 6.2241 0.0000 0.0000 0.0000 -21.1900 -34.0793 25.6193 0.0687 -1.6913 -4.6533 -5.0945 39.0103 -32.8879 0.0381 1.2596 3.4635 0.0000 0.0000 0.0000 29.7631 22.6287 10.5790 -0.0037 -0.3933 1.0807 0.7873 -19.1898 -19.3060 -0.0202 -0.9174 2.5216 5.5940 0.7593 -0.0250 1.9358 1.4484 -8.7433 -1.1813 0.3701 -9.1508 -12.3365 -13.3327 -0.2757 10.7594 -19.5846 16.9115 3.8079 -9.6173 7.5264 -0.0000 0.0000 0.0000 -93.0734 11.0682 -15.7969 12.7010 -20.8475 -2.3458 -0.0000 -0.0000 28.2600 13.7600 -10.0996 -2.4589 -7.1250 0.0000 -0.0000 -9.4052 19.6583 5.7706 -0.0000 0.0000 0.0000 92.5447 -11.6103 -7.2838 -14.3918 23.2921 -2.9813 0.0000 0.0000 42.3543 8.6881 -30.8465 -4.4801 7.1250 -0.0000 -0.0000 42.4413 -55.5171 -12.5877
-0.3639 17.5012 7.9871 -8.0654 -1.5914 6.4475 0.0000 0.0000 0.0000 -21.6041 -34.3979 25.5263 0.0678 -1.6801 -4.6225 -5.1247 39.1523 -33.1493 0.0428 1.3354 3.6722 0.0000 0.0000 0.0000 29.3381 22.8535 10.5820 -0.0023 -0.3090 0.8489 0.8187 -19.4272 -19.4047 -0.0237 -0.9947 2.7343 5.2756 0.7456 0.0344 1.8116 1.4286 -9.1403 -1.1342 0.3627 -9.6314 -12.3979 -13.2729 0.0361 10.6353 -19.5363 17.1314 3.8036 -9.6175 7.5323 -0.0000 -0.0000 0.0000 -92.9353 12.3142 -12.9277 13.1971 -21.5754 -2.5253 -0.0000 -0.0000 25.2497 13.9211 -8.9835 -2.2165 -7.1250 0.0000 -0.0000 -9.3265 20.7822 5.4824 -0.0000 -0.0000 0.0000 92.5459 -12.2082 -6.6137 -14.4379 23.3573 -2.9995 0.0000 0.0000 41.0832 8.7678 -31.3128 -4.5828 7.1250 -0.0000 -0.0000 42.9425 -55.8565 -13.1596
-0.3663 17.5042 7.9936 -7.8766 -1.5676 6.5458 0.0000 0.0000 0.0000 -21.8288 -34.5495 25.5025 0.0674 -1.6748 -4.6077 -5.0955 39.1486 -33.3481 0.0511 1.4586 4.0116 0.0000 0.0000 0.0000 29.1198 22.9457 10.6023 -0.0016 -0.2619 0.7196 0.8384 -19.5643 -19.4428 -0.0251 -1.0234 2.8132 5.0384 0.6332 -0.0158 1.9139 1.2744 -9.2599 -0.8797 0.3072 -9.7490 -12.7502 -13.1204 0.1361 10.7072 -19.3259 17.0961 3.9091 -9.5380 7.5205 0.0000 -0.0000 0.0000 -93.1983 12.8165 -11.8898 13.4936 -22.0061 -2.6354 -0.0000 -0.0000 23.8676 14.1616 -8.5689 -2.1531 -7.1250 0.0000 -0.0000 -9.1690 21.1924 5.3013 0.0000 -0.0000 0.0000 92.2435 -12.3330 -5.9650 -14.4351 23.3533 -2.9984 0.0000 0.0000 40.5214 8.8241 -31.4101 -4.6254 7.1250 -0.0000 -0.0000 43.0839 -55.9190 -13.2856
-0.3656 17.5040 7.9937 -7.8780 -1.5588 6.5475 0.0000 0.0000 0.0000 -21.7848 -34.4984 25.4483 0.0672 -1.6730 -4.6028 -5.0824 39.0880 -33.2396 0.0488 1.4263 3.9227 0.0000 0.0000 0.0000 29.1304 22.9688 10.6274 -0.0016 -0.2600 0.7142 0.8428 -19.5964 -19.4549 -0.0283 -1.0857 2.9846 5.0473 0.5906 -0.0328 2.0001 1.2222 -9.2447 -0.7885 0.2858 -9.7266 -13.0192 -13.0396 0.2071 10.8761 -19.2177 16.9166 4.0210 -9.4965 7.4801 -0.0000 0.0000 0.0000 -93.3949 12.7554 -12.0055 13.5349 -22.0659 -2.6509 -0.0000 -0.0000 23.8459 14.1412 -8.5560 -2.1466 -7.1250 0.0000 -0.0000 -9.1841 21.2063 5.3074 -0.0000 0.0000 0.0000 92.1015 -12.2703 -5.6712 -14.4685 23.4005 -3.0117 0.0000 0.0000 40.4349 8.9265 -31.3645 -4.6736 7.1250 -0.0000 -0.0000 43.1326 -55.8635 -13.2431
-0.3645 17.5036 7.9935 -7.8750 -1.5422 6.5559 0.0000 0.0000 0.0000 -21.7453 -34.4516 25.3743 0.0667 -1.6668 -4.5856 -5.0985 39.0786 -33.0907 0.0423 1.3269 3.6488 0.0000 0.0000 0.0000 29.1243 22.9719 10.6348 -0.0016 -0.2563 0.7042 0.8412 -19.5966 -19.4772 -0.0301 -1.1205 3.0803 5.1185 0.6833 -0.0592 1.8974 1.3412 -9.2435 -0.9469 0.3340 -9.7001 -12.9126 -13.1099 0.3504 10.9789 -19.3355 16.7389 4.0374 -9.5487 7.4120 0.0000 0.0000 0.0000 -93.1930 12.6711 -11.6830 13.5342 -22.0649 -2.6506 -0.0000 -0.0000 23.7442 13.7785 -8.3825 -2.0474 -7.1250 0.0000 -0.0000 -9.4516 21.3982 5.4244 0.0000 0.0000 0.0000 92.3342 -12.2147 -5.8845 -14.4990 23.4436 -3.0238 0.0000 0.0000 40.3996 8.9543 -31.4391 -4.6983 7.1250 -0.0000 -0.0000 43.2272 -55.9143 -13.3378
-0.3640 17.5031 7.9935 -7.8707 -1.5364 6.5671 0.0000 0.0000 0.0000 -21.7546 -34.4636 25.3664 0.0665 -1.6636 -4.5769 -5.0964 39.0809 -33.1135 0.0448 1.3654 3.7548 0.0000 0.0000 0.0000 29.1120 22.9542 10.6229 -0.0015 -0.2490 0.6841 0.8497 -19.6176 -19.4107 -0.0234 -0.9865 2.7117 5.2138 0.8519 -0.0819 1.6936 1.5569 -9.2555 -1.2338 0.4225 -9.6810 -12.5712 -13.2684 0.4875 11.0251 -19.5800 16.5989 3.9874 -9.6513 7.3437 -0.0000 0.0000 0.0000 -92.7746 12.5630 -11.1946 13.4938 -22.0064 -2.6354 -0.0000 -0.0000 23.7295 13.5751 -8.2887 -1.9937 -7.1250 0.0000 -0.0000 -9.6018 21.5017 5.4902 -0.0000 0.0000 0.0000 92.7640 -12.1427 -6.4667 -14.4852 23.4240 -3.0183 0.0000 0.0000 40.5156 8.8731 -31.5131 -4.6650 7.1250 -0.0000 -0.0000 43.2243 -55.9869 -13.4180
-0.3635 17.5029 7.9933 -7.8648 -1.5456 6.5911 0.0000 0.0000 0.0000 -21.7833 -34.5188 25.3830 0.0665 -1.6635 -4.5767 -5.1234 39.1385 -33.1121 0.0467 1.3952 3.8369 0.0000 0.0000 0.0000 29.0995 22.9844 10.5999 -0.0015 -0.2492 0.6847 0.8591 -19.6503 -19.3567 -0.0206 -0.9265 2.5467 5.2716 0.9468 -0.1131 1.5825 1.6775 -9.2652 -1.3931 0.4719 -9.6617 -12.3518 -13.3490 0.5281 11.0332 -19.7019 16.5458 3.9491 -9.6993 7.3130 -0.0000 0.0000 0.0000 -92.5524 12.4587 -11.0274 13.4637 -21.9629 -2.6242 -0.0000 -0.0000 23.8645 13.5848 -8.3811 -2.0172 -7.1250 0.0000 -0.0000 -9.5909 21.4078 5.5045 -0.0000 0.0000 0.0000 93.0007 -12.0603 -6.7847 -14.4418 23.3627 -3.0011 0.0000 0.0000 40.6650 8.8936 -31.5949 -4.6868 7.1250 -0.0000 -0.0000 43.3200 -56.0447 -13.5213
-0.3633 17.5031 7.9925 -7.8575 -1.5545 6.6023 0.0000 0.0000 0.0000 -21.8024 -34.5551 25.3957 0.0667 -1.6667 -4.5853 -5.1518 39.1914 -33.0840 0.0456 1.3774 3.7879 0.0000 0.0000 0.0000 29.0915 23.0345 10.5964 -0.0016 -0.2549 0.7003 0.8520 -19.6390 -19.4268 -0.0245 -1.0102 2.7768 5.2788 0.9587 -0.1400 1.5762 1.6909 -9.2546 -1.4044 0.4785 -9.6326 -12.3271 -13.3323 0.5270 11.0708 -19.6818 16.5105 3.9608 -9.6865 7.3004 -0.0000 -0.0000 0.0000 -92.5337 12.3855 -11.0543 13.4751 -21.9794 -2.6285 -0.0000 -0.0000 23.9706 13.5087 -8.4560 -2.0233 -7.1250 0.0000 -0.0000 -9.6425 21.3350 5.5511 -0.0000 -0.0000 0.0000 93.0214 -11.9744 -6.7273 -14.3912 23.2912 -2.9810 0.0000 0.0000 40.7297 8.9091 -31.6927 -4.7079 7.1250 -0.0000 -0.0000 43.4263 -56.1153 -13.6438
-0.3638 17.5033 7.9921 -7.8697 -1.5536 6.5854 0.0000 0.0000 0.0000 -21.7785 -34.5298 25.4117 0.0677 -1.6785 -4.6179 -5.1546 39.1877 -33.0508 0.0446 1.3623 3.7464 0.0000 0.0000 0.0000 29.1114 23.0144 10.6127 -0.0015 -0.2537 0.6969 0.8474 -19.6229 -19.4531 -0.0250 -1.0213 2.8075 5.2904 0.9641 -0.1447 1.5879 1.6988 -9.2408 -1.3989 0.4826 -9.6140 -12.4051 -13.2982 0.5720 11.2002 -19.6526 16.4504 4.0200 -9.6719 7.2907 0.0000 -0.0000 0.0000 -92.5211 12.3459 -11.0232 13.4842 -21.9925 -2.6318 -0.0000 -0.0000 23.9722 13.4895 -8.3979 -2.0065 -7.1250 0.0000 -0.0000 -9.6587 21.3946 5.5475 0.0000 -0.0000 0.0000 93.0168 -11.8989 -6.6768 -14.3298 23.2043 -2.9568 0.0000 0.0000 40.8216 8.8848 -31.8284 -4.7129 7.1250 -0.0000 -0.0000 43.5339 -56.2227 -13.8085
-0.3642 17.5033 7.9922 -7.8819 -1.5522 6.5819 0.0000 0.0000 0.0000 -21.7633 -34.5235 25.4181 0.0679 -1.6806 -4.6237 -5.1583 39.1913 -33.0358 0.0427 1.3339 3.6680 0.0000 0.0000 0.0000 29.1268 22.9936 10.6115 -0.0015 -0.2510 0.6897 0.8511 -19.6342 -19.4278 -0.0257 -1.0353 2.8461 5.2939 0.9609 -0.1566 1.6075 1.6956 -9.2475 -1.3795 0.4817 -9.6153 -12.4872 -13.2451 0.6722 11.3199 -19.5992 16.3819 4.0843 -9.6494 7.2650 -0.0000 -0.0000 0.0000 -92.5230 12.3388 -11.0026 13.4757 -21.9803 -2.6287 -0.0000 -0.0000 23.9216 13.6364 -8.2836 -2.0018 -7.1250 0.0000 -0.0000 -9.5578 21.5043 5.4638 -0.0000 -0.0000 0.0000 93.0177 -11.8282 -6.7699 -14.2481 23.0883 -2.9247 0.0000 0.0000 41.0976 8.9179 -31.8936 -4.7393 7.1250 -0.0000 -0.0000 43.6259 -56.2650 -13.8940
